<svg xmlns="http://www.w3.org/2000/svg" xmlns:xlink="http://www.w3.org/1999/xlink" width="824" height="644" viewBox="0 0 618.22 483"><g id="graph0" class="graph" transform="scale(1 1) rotate(0) translate(4 479)"><title>compiler_explorer</title><polygon fill="#fff" stroke="transparent" points="-4 4 -4 -479 614.216 -479 614.216 4 -4 4"/><g id="clust1" class="cluster"><title>cluster_ce_nodes</title><polygon fill="#9d9" stroke="#9d9" points="124.105 -212 124.105 -287 291.105 -287 291.105 -212 124.105 -212"/><text x="207.605" y="-271.8" fill="#000" font-family="Times,serif" font-size="14" text-anchor="middle">Production</text></g><g id="clust2" class="cluster"><title>cluster_beta_nodes</title><polygon fill="#d9d" stroke="#d9d" points="318.105 -212 318.105 -287 388.105 -287 388.105 -212 318.105 -212"/><text x="353.105" y="-271.8" fill="#000" font-family="Times,serif" font-size="14" text-anchor="middle">Beta</text></g><g id="clust3" class="cluster"><title>cluster_staging_nodes</title><polygon fill="#9dd" stroke="#9dd" points="415.105 -212 415.105 -287 485.105 -287 485.105 -212 415.105 -212"/><text x="450.105" y="-271.8" fill="#000" font-family="Times,serif" font-size="14" text-anchor="middle">Staging</text></g><g id="node1" class="node"><title>outside</title><defs><linearGradient id="l_0" x1="250.875" x2="357.334" y1="-457" y2="-457" gradientUnits="userSpaceOnUse"><stop offset="0" stop-color="#ddd" stop-opacity="1."/><stop offset="1" stop-color="#aaa" stop-opacity="1."/></linearGradient></defs><polygon fill="url(#l_0)" stroke="#ddd" points="357.334 -475 272.658 -475 250.875 -439 335.551 -439 357.334 -475"/><text x="304.105" y="-453.3" fill="#000" font-family="Times,serif" font-size="14" text-anchor="middle">outside</text></g><g id="node2" class="node"><title>cloudfront</title><defs><linearGradient id="l_1" x1="256.713" x2="351.496" y1="-385" y2="-385" gradientUnits="userSpaceOnUse"><stop offset="0" stop-color="#ddd" stop-opacity="1."/><stop offset="1" stop-color="#aaa" stop-opacity="1."/></linearGradient></defs><ellipse cx="304.105" cy="-385" fill="url(#l_1)" stroke="#ddd" rx="47.392" ry="18"/><text x="304.105" y="-381.3" fill="#000" font-family="Times,serif" font-size="14" text-anchor="middle">cloudfront</text></g><g id="edge1" class="edge"><title>outside-&gt;cloudfront</title><path fill="none" stroke="#000" d="M304.1047,-428.5726C304.1047,-423.6792 304.1047,-418.5904 304.1047,-413.6901"/><polygon fill="#000" stroke="#000" points="300.605 -428.831 304.105 -438.831 307.605 -428.831 300.605 -428.831"/><polygon fill="#000" stroke="#000" points="307.605 -413.413 304.105 -403.413 300.605 -413.413 307.605 -413.413"/></g><g id="node3" class="node"><title>alb</title><defs><linearGradient id="l_2" x1="222.105" x2="386.105" y1="-313" y2="-313" gradientUnits="userSpaceOnUse"><stop offset="0" stop-color="#ddd" stop-opacity="1."/><stop offset="1" stop-color="#aaa" stop-opacity="1."/></linearGradient></defs><polygon fill="url(#l_2)" stroke="#ddd" points="386.105 -331 222.105 -331 222.105 -295 386.105 -295 386.105 -331"/><text x="304.105" y="-309.3" fill="#000" font-family="Times,serif" font-size="14" text-anchor="middle">Application Load Balancer</text></g><g id="edge2" class="edge"><title>cloudfront-&gt;alb</title><path fill="none" stroke="#000" d="M304.1047,-356.5726C304.1047,-351.6792 304.1047,-346.5904 304.1047,-341.6901"/><polygon fill="#000" stroke="#000" points="300.605 -356.831 304.105 -366.831 307.605 -356.831 300.605 -356.831"/><polygon fill="#000" stroke="#000" points="307.605 -341.413 304.105 -331.413 300.605 -341.413 307.605 -341.413"/></g><g id="node4" class="node"><title>ce_node_1</title><defs><linearGradient id="l_3" x1="229.105" x2="283.105" y1="-238" y2="-238" gradientUnits="userSpaceOnUse"><stop offset="0" stop-color="#ddd" stop-opacity="1."/><stop offset="1" stop-color="#aaa" stop-opacity="1."/></linearGradient></defs><polygon fill="url(#l_3)" stroke="#ddd" points="283.105 -256 229.105 -256 229.105 -220 283.105 -220 283.105 -256"/><text x="256.105" y="-234.3" fill="#000" font-family="Times,serif" font-size="14" text-anchor="middle">EC2</text></g><g id="edge3" class="edge"><title>alb-&gt;ce_node_1</title><path fill="none" stroke="#000" d="M291.0913,-292.8834C291.0042,-292.7609 290.9171,-292.6383 290.83,-292.5157"/><polygon fill="#000" stroke="#000" points="283.839 -288.721 292.485 -294.845 289.545 -284.666 283.839 -288.721"/><polygon fill="#000" stroke="#000" points="295.556 -293.123 286.91 -287 289.85 -297.179 295.556 -293.123"/></g><g id="node5" class="node"><title>ce_node_2</title><defs><linearGradient id="l_4" x1="132.105" x2="186.105" y1="-238" y2="-238" gradientUnits="userSpaceOnUse"><stop offset="0" stop-color="#ddd" stop-opacity="1."/><stop offset="1" stop-color="#aaa" stop-opacity="1."/></linearGradient></defs><polygon fill="url(#l_4)" stroke="#ddd" points="186.105 -256 132.105 -256 132.105 -220 186.105 -220 186.105 -256"/><text x="159.105" y="-234.3" fill="#000" font-family="Times,serif" font-size="14" text-anchor="middle">EC2</text></g><g id="edge4" class="edge"><title>alb-&gt;ce_node_2</title><path fill="none" stroke="#000" d="M214.9549,-290.6791C214.8087,-290.6062 214.6627,-290.5331 214.5169,-290.4597"/><polygon fill="#000" stroke="#000" points="213.645 -293.929 224.196 -294.892 216.549 -287.559 213.645 -293.929"/><polygon fill="#000" stroke="#000" points="218.567 -288.668 208.105 -287 215.244 -294.829 218.567 -288.668"/></g><g id="node6" class="node"><title>beta_node_1</title><defs><linearGradient id="l_5" x1="326.105" x2="380.105" y1="-238" y2="-238" gradientUnits="userSpaceOnUse"><stop offset="0" stop-color="#ddd" stop-opacity="1."/><stop offset="1" stop-color="#aaa" stop-opacity="1."/></linearGradient></defs><polygon fill="url(#l_5)" stroke="#ddd" points="380.105 -256 326.105 -256 326.105 -220 380.105 -220 380.105 -256"/><text x="353.105" y="-234.3" fill="#000" font-family="Times,serif" font-size="14" text-anchor="middle">EC2</text></g><g id="edge5" class="edge"><title>alb-&gt;beta_node_1</title><path fill="none" stroke="#000" d="M317.3396,-292.8834C317.4255,-292.7609 317.5113,-292.6383 317.5972,-292.5157"/><polygon fill="#000" stroke="#000" points="318.836 -284.646 315.966 -294.845 324.57 -288.661 318.836 -284.646"/><polygon fill="#000" stroke="#000" points="318.59 -297.199 321.46 -287 312.857 -293.183 318.59 -297.199"/></g><g id="node7" class="node"><title>staging_node_1</title><defs><linearGradient id="l_6" x1="423.105" x2="477.105" y1="-238" y2="-238" gradientUnits="userSpaceOnUse"><stop offset="0" stop-color="#ddd" stop-opacity="1."/><stop offset="1" stop-color="#aaa" stop-opacity="1."/></linearGradient></defs><polygon fill="url(#l_6)" stroke="#ddd" points="477.105 -256 423.105 -256 423.105 -220 477.105 -220 477.105 -256"/><text x="450.105" y="-234.3" fill="#000" font-family="Times,serif" font-size="14" text-anchor="middle">EC2</text></g><g id="edge6" class="edge"><title>alb-&gt;staging_node_1</title><path fill="none" stroke="#000" d="M391.1447,-290.6411C393.5201,-289.4848 395.8454,-288.272 398.1047,-287 401.1399,-285.2912 404.1349,-283.3676 407.062,-281.2971"/><polygon fill="#000" stroke="#000" points="389.474 -287.554 381.768 -294.825 392.327 -293.946 389.474 -287.554"/><polygon fill="#000" stroke="#000" points="409.301 -283.991 415.108 -275.129 405.043 -278.435 409.301 -283.991"/></g><g id="node8" class="node"><title>admin</title><defs><linearGradient id="l_7" x1="278.105" x2="332.105" y1="-165" y2="-165" gradientUnits="userSpaceOnUse"><stop offset="0" stop-color="#ddf" stop-opacity="1."/><stop offset="1" stop-color="#aac" stop-opacity="1."/></linearGradient></defs><polygon fill="url(#l_7)" stroke="#ddf" points="332.105 -184 278.105 -184 278.105 -146 332.105 -146 332.105 -184"/><text x="305.105" y="-168.8" fill="#000" font-family="Times,serif" font-size="14" text-anchor="middle">admin</text><text x="305.105" y="-153.8" fill="#000" font-family="Times,serif" font-size="14" text-anchor="middle">EC2</text></g><g id="edge12" class="edge"><title>ce_node_1-&gt;admin</title><path fill="none" stroke="#000" d="M273.8261,-211.5987C277.926,-205.4907 282.3009,-198.973 286.4398,-192.8069"/><polygon fill="#000" stroke="#000" points="279.642 -203.575 273.217 -212 283.494 -209.42 279.642 -203.575"/><polygon fill="#000" stroke="#000" points="289.608 -194.367 292.276 -184.113 283.796 -190.465 289.608 -194.367"/></g><g id="node9" class="node"><title>efs</title><defs><linearGradient id="l_8" x1="457.105" x2="511.105" y1="-93" y2="-93" gradientUnits="userSpaceOnUse"><stop offset="0" stop-color="#ddd" stop-opacity="1."/><stop offset="1" stop-color="#aaa" stop-opacity="1."/></linearGradient></defs><polygon fill="url(#l_8)" stroke="#ddd" points="511.105 -109 508.105 -113 487.105 -113 484.105 -109 457.105 -109 457.105 -73 511.105 -73 511.105 -109"/><text x="484.105" y="-87.3" fill="#000" font-family="Times,serif" font-size="14" text-anchor="middle">efs</text></g><g id="edge14" class="edge"><title>ce_node_1-&gt;efs</title><path fill="none" stroke="#000" d="M292.4537,-218.4798C297.6246,-216.101 302.9408,-213.8588 308.1047,-212 360.0412,-193.3047 384.5697,-216.6121 429.1047,-184 451.3153,-167.7356 466.1357,-139.5554 474.7398,-118.4666"/><polygon fill="#000" stroke="#000" points="295.606 -210.264 291.105 -219.856 300.605 -215.165 295.606 -210.264"/><polygon fill="#000" stroke="#000" points="478.036 -119.646 478.365 -109.056 471.504 -117.13 478.036 -119.646"/></g><g id="node10" class="node"><title>s3</title><defs><linearGradient id="l_9" x1="265.105" x2="319.105" y1="-20" y2="-20" gradientUnits="userSpaceOnUse"><stop offset="0" stop-color="#ddd" stop-opacity="1."/><stop offset="1" stop-color="#aaa" stop-opacity="1."/></linearGradient></defs><polygon fill="url(#l_9)" stroke="#ddd" points="319.105 -36 316.105 -40 295.105 -40 292.105 -36 265.105 -36 265.105 0 319.105 0 319.105 -36"/><text x="292.105" y="-14.3" fill="#000" font-family="Times,serif" font-size="14" text-anchor="middle">s3</text></g><g id="edge16" class="edge"><title>ce_node_1-&gt;s3</title><path fill="none" stroke="#000" d="M198.4989,-208.9355C148.1648,-195.3668 115.1977,-225.1143 77.1047,-184 43.1391,-147.3405 36.1635,-111.2457 67.1047,-72 90.0504,-42.8958 196.8069,-27.6931 254.6383,-21.4721"/><polygon fill="#000" stroke="#000" points="197.514 -212.295 208.105 -212 199.642 -205.626 197.514 -212.295"/><polygon fill="#000" stroke="#000" points="255.251 -24.927 264.836 -20.414 254.528 -17.965 255.251 -24.927"/></g><g id="node11" class="node"><title>dynamodb</title><defs><linearGradient id="l_10" x1="89.105" x2="163.105" y1="-91" y2="-91" gradientUnits="userSpaceOnUse"><stop offset="0" stop-color="#ddd" stop-opacity="1."/><stop offset="1" stop-color="#aaa" stop-opacity="1."/></linearGradient></defs><path fill="url(#l_10)" stroke="#ddd" d="M163.1047,-105.7273C163.1047,-107.5331 146.5207,-109 126.1047,-109 105.6887,-109 89.1047,-107.5331 89.1047,-105.7273 89.1047,-105.7273 89.1047,-76.2727 89.1047,-76.2727 89.1047,-74.4669 105.6887,-73 126.1047,-73 146.5207,-73 163.1047,-74.4669 163.1047,-76.2727 163.1047,-76.2727 163.1047,-105.7273 163.1047,-105.7273"/><path fill="none" stroke="#ddd" d="M163.1047,-105.7273C163.1047,-103.9214 146.5207,-102.4545 126.1047,-102.4545 105.6887,-102.4545 89.1047,-103.9214 89.1047,-105.7273"/><text x="126.105" y="-87.3" fill="#000" font-family="Times,serif" font-size="14" text-anchor="middle">dynamodb</text></g><g id="edge18" class="edge"><title>ce_node_1-&gt;dynamodb</title><path fill="none" stroke="#000" d="M198.337,-208.8152C154.9107,-197.2147 124.0965,-222.2497 94.1047,-184 78.8696,-164.5702 91.0554,-137.4181 104.5455,-117.4667"/><polygon fill="#000" stroke="#000" points="197.512 -212.228 208.105 -212 199.682 -205.572 197.512 -212.228"/><polygon fill="#000" stroke="#000" points="107.542 -119.294 110.535 -109.131 101.858 -115.209 107.542 -119.294"/></g><g id="edge13" class="edge"><title>ce_node_2-&gt;admin</title><path fill="none" stroke="#000" d="M217.1082,-207.4622C234.5591,-198.7213 253.112,-189.7214 268.6606,-182.2696"/><polygon fill="#000" stroke="#000" points="215.459 -204.374 208.105 -212 218.61 -210.625 215.459 -204.374"/><polygon fill="#000" stroke="#000" points="270.283 -185.374 277.796 -177.904 267.264 -179.058 270.283 -185.374"/></g><g id="edge15" class="edge"><title>ce_node_2-&gt;efs</title><path fill="none" stroke="#000" d="M217.6466,-208.8644C272.95,-192.0307 296.5863,-208.6737 354.1047,-184 393.2254,-167.2184 432.1401,-137.1561 457.0492,-115.7546"/><polygon fill="#000" stroke="#000" points="216.512 -205.553 208.105 -212 218.698 -212.203 216.512 -205.553"/><polygon fill="#000" stroke="#000" points="459.396 -118.352 464.627 -109.138 454.792 -113.079 459.396 -118.352"/></g><g id="edge17" class="edge"><title>ce_node_2-&gt;s3</title><path fill="none" stroke="#000" d="M122.263,-231.2657C95.53,-224.2901 61.0341,-210.5159 43.1047,-184 15.2043,-142.738 7.7749,-110.7225 39.1047,-72 65.798,-39.0081 190.9513,-25.2987 254.6517,-20.3817"/><polygon fill="#000" stroke="#000" points="113.973 -229.519 124.105 -232.619 118.118 -223.877 113.973 -229.519"/><polygon fill="#000" stroke="#000" points="254.976 -23.867 264.691 -19.64 254.461 -16.886 254.976 -23.867"/></g><g id="edge19" class="edge"><title>ce_node_2-&gt;dynamodb</title><path fill="none" stroke="#000" d="M122.2211,-230.0192C81.7336,-220.423 20.654,-203.1925 7.1047,-184 -2.6356,-170.2029 -1.9939,-160.2285 7.1047,-146 22.9782,-121.1765 53.23,-107.3942 79.2583,-99.8342"/><polygon fill="#000" stroke="#000" points="113.858 -228.596 124.105 -231.291 117.776 -222.794 113.858 -228.596"/><polygon fill="#000" stroke="#000" points="80.232 -103.197 88.988 -97.231 78.423 -96.434 80.232 -103.197"/></g><g id="edge20" class="edge"><title>beta_node_1-&gt;admin</title><path fill="none" stroke="#000" d="M335.7449,-211.5987C331.7287,-205.4907 327.4431,-198.973 323.3887,-192.8069"/><polygon fill="#000" stroke="#000" points="326.268 -208.417 336.24 -212 330.679 -202.981 326.268 -208.417"/><polygon fill="#000" stroke="#000" points="326.091 -190.546 317.672 -184.113 320.242 -194.391 326.091 -190.546"/></g><g id="edge21" class="edge"><title>beta_node_1-&gt;efs</title><path fill="none" stroke="#000" d="M389.3102,-218.6568C394.5318,-216.2332 399.9002,-213.9315 405.1047,-212 452.8043,-194.2973 484.8358,-224.136 516.1047,-184 531.2789,-164.5227 519.1011,-137.3767 505.6293,-117.4397"/><polygon fill="#000" stroke="#000" points="391.838 -210.182 388.105 -220.097 397.207 -214.674 391.838 -210.182"/><polygon fill="#000" stroke="#000" points="508.324 -115.192 499.648 -109.111 502.638 -119.275 508.324 -115.192"/></g><g id="edge22" class="edge"><title>beta_node_1-&gt;s3</title><path fill="none" stroke="#000" d="M389.3899,-218.297C394.5705,-215.9462 399.9065,-213.7606 405.1047,-212 467.6842,-190.8049 509.0142,-234.9296 551.1047,-184 561.8637,-170.9816 553.1148,-162.7688 551.1047,-146 547.076,-112.3927 557.2554,-95.7155 533.1047,-72 504.6048,-44.0136 389.9372,-28.1611 329.621,-21.6044"/><polygon fill="#000" stroke="#000" points="392.452 -209.989 388.105 -219.65 397.529 -214.809 392.452 -209.989"/><polygon fill="#000" stroke="#000" points="329.687 -18.092 319.375 -20.523 328.952 -25.053 329.687 -18.092"/></g><g id="edge23" class="edge"><title>beta_node_1-&gt;dynamodb</title><path fill="none" stroke="#000" d="M316.7525,-218.4886C311.5821,-216.1084 306.2669,-213.8635 301.1047,-212 249.5925,-193.4042 225.2608,-216.3968 181.1047,-184 158.909,-167.7153 144.0864,-139.5381 135.4777,-118.4555"/><polygon fill="#000" stroke="#000" points="308.601 -215.182 318.105 -219.866 313.596 -210.278 308.601 -215.182"/><polygon fill="#000" stroke="#000" points="138.714 -117.12 131.851 -109.048 132.183 -119.638 138.714 -117.12"/></g><g id="edge24" class="edge"><title>staging_node_1-&gt;admin</title><path fill="none" stroke="#000" d="M413.8978,-219.7717C391.7457,-208.6193 363.502,-194.4 341.344,-183.2446"/><polygon fill="#000" stroke="#000" points="406.104 -215.679 415.105 -221.269 411.555 -211.287 406.104 -215.679"/><polygon fill="#000" stroke="#000" points="342.762 -180.04 332.256 -178.669 339.614 -186.292 342.762 -180.04"/></g><g id="edge25" class="edge"><title>staging_node_1-&gt;efs</title><path fill="none" stroke="#000" d="M487.2273,-230.0542C527.978,-220.4906 589.4563,-203.2906 603.1047,-184 612.8592,-170.2129 612.2032,-160.2285 603.1047,-146 585.141,-117.9079 548.7632,-103.956 520.9314,-97.1604"/><polygon fill="#000" stroke="#000" points="491.907 -223.195 485.105 -231.318 495.488 -229.21 491.907 -223.195"/><polygon fill="#000" stroke="#000" points="521.637 -93.732 511.114 -94.968 520.111 -100.563 521.637 -93.732"/></g><g id="edge26" class="edge"><title>staging_node_1-&gt;s3</title><path fill="none" stroke="#000" d="M487.4507,-234.3602C519.3546,-229.0547 563.4263,-216.0198 585.1047,-184 599.1805,-163.2095 582.1702,-81.3332 573.1047,-72 539.8392,-37.7523 398.1086,-24.4905 329.5484,-20.0081"/><polygon fill="#000" stroke="#000" points="494.112 -229.301 485.105 -234.879 495.625 -236.136 494.112 -229.301"/><polygon fill="#000" stroke="#000" points="329.4 -16.492 319.201 -19.362 328.964 -23.479 329.4 -16.492"/></g><g id="edge27" class="edge"><title>staging_node_1-&gt;dynamodb</title><path fill="none" stroke="#000" d="M413.8087,-218.3287C408.6297,-215.9731 403.2971,-213.7776 398.1047,-212 337.6584,-191.3065 315.7837,-209.2734 257.1047,-184 217.8094,-167.0753 178.5703,-137.0414 153.4292,-115.6856"/><polygon fill="#000" stroke="#000" points="405.668 -214.87 415.105 -219.686 410.731 -210.036 405.668 -214.87"/><polygon fill="#000" stroke="#000" points="155.637 -112.968 145.78 -109.085 151.064 -118.267 155.637 -112.968"/></g><g id="edge9" class="edge"><title>admin-&gt;efs</title><path fill="none" stroke="#000" d="M341.9194,-149.7805C372.7812,-137.022 416.6211,-118.8983 447.4406,-106.1572"/><polygon fill="#000" stroke="#000" points="340.195 -146.706 332.291 -153.761 342.87 -153.175 340.195 -146.706"/><polygon fill="#000" stroke="#000" points="449.052 -109.278 456.956 -102.223 446.378 -102.809 449.052 -109.278"/></g><g id="edge10" class="edge"><title>admin-&gt;s3</title><path fill="none" stroke="#000" d="M286.2304,-136.7806C281.6747,-128.4986 277.4478,-119.1891 275.1047,-110 269.6528,-88.6196 274.7737,-64.0245 280.7819,-45.6468"/><polygon fill="#000" stroke="#000" points="283.348 -138.784 291.431 -145.633 289.384 -135.238 283.348 -138.784"/><polygon fill="#000" stroke="#000" points="284.111 -46.731 284.149 -36.136 277.512 -44.395 284.111 -46.731"/></g><g id="edge11" class="edge"><title>admin-&gt;dynamodb</title><path fill="none" stroke="#000" d="M268.4303,-149.8385C240.7068,-138.3774 202.4519,-122.5625 172.5841,-110.215"/><polygon fill="#000" stroke="#000" points="267.34 -153.175 277.918 -153.761 270.014 -146.706 267.34 -153.175"/><polygon fill="#000" stroke="#000" points="173.784 -106.924 163.206 -106.338 171.11 -113.393 173.784 -106.924"/></g><g id="node12" class="node"><title>build</title><defs><linearGradient id="l_11" x1="296.605" x2="409.605" y1="-91" y2="-91" gradientUnits="userSpaceOnUse"><stop offset="0" stop-color="#ddf" stop-opacity="1."/><stop offset="1" stop-color="#aac" stop-opacity="1."/></linearGradient></defs><polygon fill="url(#l_11)" stroke="#ddf" points="409.605 -110 296.605 -110 296.605 -72 409.605 -72 409.605 -110"/><text x="353.105" y="-94.8" fill="#000" font-family="Times,serif" font-size="14" text-anchor="middle">Compiler Builder</text><text x="353.105" y="-79.8" fill="#000" font-family="Times,serif" font-size="14" text-anchor="middle">EC2</text></g><g id="edge7" class="edge"><title>admin-&gt;build</title><path fill="none" stroke="#000" d="M323.0805,-137.2873C327.0044,-131.238 331.1579,-124.8347 335.0835,-118.7827"/><polygon fill="#000" stroke="#000" points="319.971 -135.649 317.466 -145.943 325.844 -139.458 319.971 -135.649"/><polygon fill="#000" stroke="#000" points="338.113 -120.544 340.619 -110.249 332.24 -116.734 338.113 -120.544"/></g><g id="edge8" class="edge"><title>build-&gt;s3</title><path fill="none" stroke="#000" d="M330.5435,-64.0006C325.1221,-57.5127 319.341,-50.5943 313.9527,-44.146"/><polygon fill="#000" stroke="#000" points="327.98 -66.391 337.078 -71.82 333.351 -61.902 327.98 -66.391"/><polygon fill="#000" stroke="#000" points="316.492 -41.727 307.394 -36.297 311.121 -46.215 316.492 -41.727"/></g></g></svg>